<svg width="42" height="42" viewBox="0 0 42 42" fill="none" xmlns="http://www.w3.org/2000/svg">
<path d="M40.334 6.41663C40.334 9.03999 38.2074 11.1666 35.584 11.1666C32.9606 11.1666 30.834 9.03999 30.834 6.41663C30.834 3.79327 32.9606 1.66663 35.584 1.66663C38.2074 1.66663 40.334 3.79327 40.334 6.41663Z" stroke="black" stroke-width="3"/>
<path d="M24.7106 2.39914C24.2776 3.60276 24.0417 4.89987 24.0417 6.25C24.0417 12.5322 29.1344 17.625 35.4167 17.625C36.7667 17.625 38.0639 17.3891 39.2675 16.956C39.529 18.2061 39.6667 19.5029 39.6667 20.8333C39.6667 31.2346 31.2346 39.6667 20.8333 39.6667C17.8169 39.6667 14.9717 38.9591 12.4491 37.7025L12.4487 37.7023C11.3304 37.1456 9.98206 36.9255 8.64844 37.2823C8.64842 37.2823 8.64841 37.2824 8.64839 37.2824L4.01098 38.5231L24.7106 2.39914ZM24.7106 2.39914C23.4605 2.13766 22.1638 2 20.8333 2C10.432 2 2 10.432 2 20.8333C2 23.8497 2.70762 26.6949 3.96412 29.2177C4.52124 30.3362 4.74117 31.6848 4.38437 33.0182C4.38437 33.0182 4.38436 33.0182 4.38436 33.0182L3.14352 37.6559L3.14351 37.6559C3.00271 38.1821 3.48408 38.664 4.01087 38.5232L24.7106 2.39914Z" stroke="#E45B26" stroke-width="4" stroke-linejoin="round"/>
</svg>
