<svg width="189" height="60" viewBox="0 0 189 60" fill="none" xmlns="http://www.w3.org/2000/svg">
<path d="M60.0001 28.4078H48.3521V31.5922H60.0001V28.4078Z" fill="#E45B26"/>
<path d="M55.1381 12.7793L53.3381 14.5793L51.4518 12.6905H51.2859L44.8862 18.9327L42.7393 16.8017L49.0694 10.474V10.3081L47.1848 8.41005C47.1588 8.26005 48.6923 6.86145 48.9085 6.62598L55.1381 12.7793Z" fill="#E45B26"/>
<path d="M53.963 47.7327L51.8697 50.028L45.444 43.6685L45.2061 43.738L42.444 46.5067L40.644 44.7067L45.863 39.6461L53.963 47.7327Z" fill="#E45B26"/>
<path d="M34.8601 0V11.648H31.8853L27.821 4.44134V11.648H25.0557V0H28.5333C29.7735 2.0405 30.821 4.20251 31.9406 6.31341C32.2942 6.78017 32.0948 6.27402 32.0948 6.24302V0.125698C32.0948 0.11648 32.2121 0 32.2205 0H34.8601Z" fill="#E45B26"/>
<path d="M33.8548 48.3519V60H26.3129V57.486H30.7543V55.4748H27.2347V53.0447H30.7543V50.9497H26.0615V48.3519H33.8548Z" fill="#E45B26"/>
<path d="M20.445 46.4665L12.2645 54.631L9.74889 52.1665L11.8992 45.1684L7.24833 49.691L5.36621 47.7327L13.4562 39.631L13.705 39.7165C14.3344 40.417 15.1145 41.0195 15.6643 41.7679L13.3246 49.6927L18.5495 44.5868L20.445 46.4665Z" fill="#E45B26"/>
<path d="M17.9631 12.4919C18.1818 12.7299 19.7136 14.126 19.6868 14.276L14.2156 19.6869L6.03516 11.5224L11.3547 6.20282L13.1547 8.00282L10.0617 11.1754L11.4385 12.5682C12.2874 11.7746 13.0516 10.8511 13.9525 10.1363C14.0773 10.1363 15.6008 11.6481 15.5807 11.762L13.1623 14.276C13.1799 14.3724 14.3983 15.5749 14.5374 15.6721C14.6078 15.7215 14.6245 15.7869 14.7469 15.7534L17.9631 12.4919Z" fill="#E45B26"/>
<path d="M11.5693 28.4447C11.6112 28.7874 11.6179 31.6248 11.5257 31.7631L0 35.3631V32.0111L8.04553 29.8734L7.83101 29.669L0 27.5698V24.6368L11.4821 28.1966C11.5743 28.2586 11.5575 28.3525 11.5693 28.4447Z" fill="#E45B26"/>
<path d="M189 21.5605V26.9755C189 27.0316 187.957 27.0916 187.957 26.9103V21.8215C187.957 21.738 187.557 21.1365 187.432 21.0412C186.309 20.1827 184.466 21.0947 184.301 22.4713C184.22 23.1407 184.465 26.8189 184.304 26.9768C184.261 27.0172 183.469 26.8972 183.259 27.106V19.9295H184.304V20.9734C185.247 19.7951 187.291 19.3424 188.434 20.4958C188.558 20.6198 189 21.4418 189 21.5605Z" fill="#E45B26"/>
<path d="M175.04 24.1689C175.395 27.6344 180.433 28.3664 181.433 25.0196C181.122 25.0757 180.601 24.9387 180.338 25.0105C180.257 25.0327 180.218 25.8168 179.344 26.1261C177.561 26.7563 176.085 25.5585 176.083 23.7135H181.433C181.832 18.3129 174.47 18.5869 175.04 24.1689ZM179.415 22.7936C178.353 22.7662 177.258 22.7505 176.215 22.9306C176.048 20.7803 179.135 19.7912 180.093 21.7263C180.172 21.8881 180.39 22.4726 180.386 22.6135C180.374 23.1368 179.745 22.8027 179.415 22.7936Z" fill="#E45B26"/>
<path d="M180.258 37.8707V43.2856H179.214V38.1316C179.214 37.7076 178.473 37.1269 178.074 37.0499C177.278 36.896 175.822 37.6423 175.822 38.5231V43.2856H174.778V38.3926C174.778 37.1804 173.237 36.729 172.253 37.3031C172.066 37.4127 171.385 38.1003 171.385 38.2621V43.2856H170.211V36.2397H171.387C171.096 38.0181 171.594 36.7616 172.265 36.4001C173.058 35.9722 174.174 35.9944 174.898 36.5763C175.245 36.6428 175.351 37.4897 175.625 37.4153C175.687 37.397 176.105 36.6872 176.513 36.4732C177.575 35.9187 179.209 35.9683 179.894 37.0604C179.957 37.1608 180.258 37.8263 180.258 37.8707Z" fill="#E45B26"/>
<path d="M172.934 20.9251C173.429 21.8189 173.453 25.5416 173.349 26.6559C173.335 26.8085 173.339 27.0408 173.153 27.0734C173.104 27.0812 172.168 27.0251 172.168 26.9755V21.952C172.168 21.8424 171.838 21.2109 171.717 21.0987C171.106 20.5363 170.043 20.6903 169.433 21.1744C169.309 21.2722 168.776 22.0107 168.776 22.0825V26.9755C168.776 27.0382 167.601 27.0773 167.601 26.9103V21.6911C167.601 21.2774 166.666 20.7203 166.226 20.7072C163.619 20.6303 164.191 24.6869 164.201 26.3962C164.202 26.7015 164.482 27.0656 164.071 27.0551C163.954 27.0525 163.165 27.0212 163.165 26.9755V19.9296L164.217 19.9909C164.422 20.1083 163.969 21.0204 164.403 20.8416C165.596 19.5003 167.053 19.4468 168.258 20.7803C168.362 20.8977 168.396 21.2918 168.643 21.1026C168.657 21.0922 168.678 20.8834 168.773 20.7803C169.847 19.6255 172.074 19.375 172.934 20.9251Z" fill="#E45B26"/>
<path d="M164.571 36.1457C160.215 36.6063 160.61 43.7828 165.316 43.4148C169.808 43.0638 169.432 35.6342 164.571 36.1457ZM164.547 42.491C162.019 42.1583 162.013 37.5536 164.434 37.0526C168.165 36.2801 168.498 43.0116 164.547 42.491Z" fill="#E45B26"/>
<path d="M160.947 22.213V26.9756H159.903V22.213C159.903 21.4641 159.031 20.6851 158.277 20.706C157.561 20.7242 156.38 21.6415 156.38 22.3435V27.1061C156.17 26.8973 155.378 27.0173 155.336 26.9769C155.146 26.7916 155.532 22.6058 155.212 21.6846C154.784 20.4541 153.181 20.4815 152.396 21.361C152.308 21.4601 151.944 22.0277 151.944 22.0825V26.9756C151.667 26.8751 150.763 27.2039 150.775 26.9103C150.776 26.8607 150.9 26.819 150.9 26.7798V19.9296C151.868 19.9361 152.065 19.6647 151.944 20.7777C152.225 21.0478 152.207 20.612 152.395 20.4515C153.492 19.5094 155.537 19.5682 155.991 21.1039C156.328 21.1887 156.268 20.8573 156.501 20.6407C157.79 19.4559 160.165 19.5121 160.754 21.3623C160.786 21.4641 160.947 22.17 160.947 22.213Z" fill="#E45B26"/>
<path d="M160.238 40.6668C161.08 44.1402 155.138 44.4025 154.945 41.1992C156.291 40.9878 155.879 41.451 156.378 42.0486C157.168 42.9998 159.89 42.6058 159.183 40.9395C158.688 39.7769 155.499 40.4711 155.215 38.6457C154.716 35.4567 159.904 35.2036 160.032 38.1968C159.763 37.9659 159.183 38.1525 159.009 38.0468C158.982 38.0298 158.859 37.6331 158.733 37.4766C157.746 36.2683 155.328 37.47 156.378 38.6574C157.168 39.5499 159.835 39.0006 160.238 40.6668Z" fill="#E45B26"/>
<path d="M153.249 38.1316V43.2856H152.205V38.1316C152.205 38.0716 151.774 37.4544 151.652 37.367C150.925 36.8581 149.898 36.969 149.212 37.4871C149.035 37.6201 148.551 38.2425 148.551 38.3926V43.2856H147.377V36.2397H148.553L148.487 37.1543C149.459 36.2658 150.639 35.7934 151.946 36.3023C152.488 36.5137 153.249 37.581 153.249 38.1316Z" fill="#E45B26"/>
<path d="M145.259 19.8317C140.74 20.3158 141.089 27.6762 146.123 27.0917C150.392 26.5971 149.84 19.3398 145.259 19.8317ZM145.603 26.3114C142.694 26.3884 142.326 21.2187 145.125 20.7438C148.692 20.1383 148.855 26.2253 145.603 26.3114Z" fill="#E45B26"/>
<path d="M145.68 39.8931C146.033 34.5603 138.572 35.0627 139.19 40.3171C139.61 43.8832 144.477 44.6752 145.68 41.3297C145.405 41.3832 144.704 41.2357 144.527 41.3493C144.373 41.4458 144.263 42.2887 143.367 42.4727C141.505 42.855 140.212 41.7772 140.331 39.8931H145.68ZM144.506 39.1102H140.331C140.708 36.4301 144.451 36.1705 144.506 39.1102Z" fill="#E45B26"/>
<path d="M139.287 16.537V20.9734L138.201 20.167C132.64 17.881 131.842 28.2268 137.497 27.076C138.176 26.9377 138.7 26.327 139.22 25.9304L139.287 27.0421C139.486 26.9507 140.331 27.0277 140.331 26.9755V16.537H139.287ZM136.992 26.3114C134.055 26.3884 134.009 21.1652 136.513 20.7438C140.152 20.1318 140.147 26.2279 136.992 26.3114Z" fill="#E45B26"/>
<path d="M129.175 39.8931H134.329C134.636 34.6204 127.42 34.8748 127.93 40.355C128.262 43.9197 133.236 44.6478 134.329 41.3297C134.018 41.3858 133.498 41.2488 133.234 41.3206C133.118 41.3519 133.114 41.7707 132.952 41.9743C132.34 42.7493 130.491 42.6423 129.767 42.0408C129.369 41.7107 128.666 39.8931 129.175 39.8931ZM133.285 39.1102H129.11C129.211 36.3675 133.209 36.2475 133.285 39.1102Z" fill="#E45B26"/>
<path d="M131.85 20.2557C131.873 19.833 131.01 19.8421 130.799 19.9869C130.467 20.2166 130.869 20.9055 130.806 20.9721C130.33 20.8938 130.146 20.394 129.724 20.1631C127.385 18.8844 125.009 21.0908 125.061 23.5099C125.112 25.8782 127.493 27.5875 129.676 26.4327C129.886 26.3205 130.711 25.4397 130.806 25.5415C130.525 26.558 130.959 27.4439 130.028 28.219C129.296 28.8283 127.565 28.8805 126.824 28.2829C126.538 28.052 126.388 27.5418 126.35 27.5183C126.17 27.4048 125.469 27.5522 125.195 27.4987C125.519 29.9074 129.685 30.1579 131.021 28.7566C132.535 27.1699 131.575 22.3708 131.85 20.2557ZM128.503 25.9212C125.63 26.0113 125.48 21.173 128.032 20.7437C131.575 20.1487 131.663 25.8234 128.503 25.9212Z" fill="#E45B26"/>
<path d="M126.761 36.1092C126.73 36.3023 126.809 37.1048 126.761 37.1517C126.684 37.2261 125.332 37.1543 124.802 37.8668C124.748 37.9411 124.413 38.6092 124.413 38.6536V43.2856H123.37V36.2397H124.415L124.479 37.414C124.978 36.5567 125.767 36.1248 126.762 36.1092H126.761Z" fill="#E45B26"/>
<path d="M123.37 26.9768L122.324 27.106V22.213C122.324 21.3766 121.378 20.6798 120.568 20.7059C119.836 20.7294 118.54 21.5775 118.54 22.3435V27.106C118.347 26.8907 117.497 27.0277 117.497 26.9755V19.9296H118.542V20.9734C119.54 19.9635 120.717 19.4755 122.095 20.094C124.165 21.023 123.11 25.141 123.37 26.9768Z" fill="#E45B26"/>
<path d="M119.976 32.8472V37.2835L118.846 36.3923C113.902 34.3764 112.381 43.0743 117.173 43.4161C118.375 43.5009 119.036 42.9268 119.909 42.2405L119.976 43.2869H121.02V32.8472H119.976ZM117.071 42.4714C114.827 42.0878 114.761 37.4649 117.202 37.0539C120.953 36.4236 121.005 43.1421 117.071 42.4714Z" fill="#E45B26"/>
<path d="M115.148 19.9296V27.106C114.189 26.7968 113.977 27.3474 114.103 26.0622C113.209 27.2404 110.774 27.6345 109.869 26.3179C109.764 26.1666 109.407 25.2062 109.407 25.0836V19.9296H110.451V24.9531C110.451 24.9974 110.719 25.5794 110.782 25.6655C111.449 26.5893 113.253 26.2749 113.824 25.325C113.876 25.2388 114.104 24.7273 114.104 24.6921V19.9296H115.148Z" fill="#E45B26"/>
<path d="M112.539 38.2621V43.2856H111.495V38.2621C111.495 37.6971 110.504 37.0786 109.979 37.029C108.622 36.9011 107.824 37.9476 107.713 39.178C107.6 40.4346 107.687 42.046 107.841 43.2843H106.667V36.2396H107.712V37.2835C108.692 36.16 110.306 35.659 111.616 36.5749C112.056 36.8816 112.539 37.744 112.539 38.2621Z" fill="#E45B26"/>
<path d="M103.78 33.3221C104.167 33.3221 104.48 33.6353 104.48 34.0215C104.48 34.4077 104.167 34.7222 103.78 34.7222C103.394 34.7222 103.081 34.4091 103.081 34.0215C103.081 33.634 103.394 33.3221 103.78 33.3221Z" fill="#E45B26"/>
<path d="M104.318 36.2397H103.274V43.2857H104.318V36.2397Z" fill="#E45B26"/>
<path d="M104.187 19.7991C104.148 20.1005 104.242 20.488 104.195 20.7672C104.177 20.8781 102.755 20.8886 102.201 21.6623C101.455 22.7101 102.045 26.7759 101.84 26.9768C101.797 27.0173 101.005 26.8972 100.795 27.106V19.9296H101.84L101.904 21.1039C102.436 20.3249 103.232 19.8708 104.187 19.7991Z" fill="#E45B26"/>
<path d="M101.056 43.2843H99.8816V38.1317C99.8816 37.5993 98.9252 37.0069 98.3889 37.0173C97.6465 37.0317 96.4891 37.735 96.4891 38.5231V43.2856H95.4453V38.5231C95.4453 37.7585 94.601 36.9899 93.8182 37.0173C93.1005 37.0408 91.9223 37.9464 91.9223 38.6536V43.2856H90.8784V36.2397C91.0715 36.2723 91.8766 36.1927 91.9236 36.2384C91.9979 36.3141 91.7513 37.3396 92.1167 37.1517C92.2798 37.0695 92.6164 36.4941 93.0966 36.3036C94.1731 35.8795 95.7897 36.1536 96.099 37.414C97.0345 36.421 98.1123 35.7895 99.5215 36.2736C101.975 37.1165 100.431 41.3741 101.056 43.2843Z" fill="#E45B26"/>
<path d="M90.6176 22.1477C90.8368 25.4828 89.0101 27.4609 85.6111 27.089C80.5758 26.5397 80.4466 18.4512 85.2392 17.3564C87.4926 16.841 90.0566 17.6996 90.3593 20.2544C90.3541 20.3497 89.2293 20.3575 89.1876 20.3158C89.1667 20.2936 89.1602 19.8982 89.0806 19.7064C88.3903 18.0258 86.5362 17.7818 84.9717 18.3938C82.2225 19.4689 82.1951 24.9857 85.0096 25.9943C87.2669 26.8033 89.6234 25.6198 89.4433 23.0611H86.7032V22.1477H90.6176Z" fill="#E45B26"/>
<path d="M98.2023 21.1456C98.1449 20.7803 99.6872 20.0992 98.7059 19.5955C98.308 19.392 97.8017 20.4475 97.7117 20.4619C97.3646 20.5167 96.2098 19.6868 95.0473 19.8578C92.7912 20.1892 91.7722 22.1164 92.0866 24.2667C92.1571 24.7456 92.7469 25.7399 92.6882 25.9695C92.6177 26.2435 91.8387 26.7145 91.8009 26.9285C91.767 27.123 92.2915 27.6031 92.4416 27.4961C92.4559 27.487 92.469 27.2821 92.5707 27.1738C93.7346 25.9434 93.3132 26.815 94.6558 27.0473C98.0744 27.6397 99.7472 24.713 98.5624 21.7067C98.4854 21.5123 98.2206 21.2552 98.2023 21.1456ZM93.3588 25.0183C92.3763 22.5861 94.1404 19.5994 96.8649 21.1195C97.0671 21.4705 95.6618 22.6096 95.3787 22.9293C94.969 23.3886 94.5658 23.9953 94.1443 24.435C94.0295 24.5538 93.4998 25.1527 93.3588 25.0183ZM97.7795 24.1558C97.6295 25.4019 96.6404 26.2814 95.4844 26.2761C95.2182 26.2748 94.9416 26.2266 94.6663 26.1235C94.5593 26.083 94.4392 26.0439 94.3348 25.9956C94.2722 25.9669 94.2148 25.9343 94.1678 25.8977C94.0439 25.7999 93.9969 25.6694 94.1352 25.4711C94.1769 25.411 94.237 25.3367 94.3061 25.2545C94.4627 25.0705 94.6676 24.8487 94.8346 24.6647C94.8907 24.6034 94.9429 24.5447 94.9859 24.4951C95.7036 23.6626 96.5034 22.8784 97.2341 22.0538C97.2576 22.0264 97.2785 21.9533 97.3111 21.8959C97.3202 21.8789 97.3307 21.8646 97.3424 21.8515C97.3594 21.8333 97.3803 21.8202 97.405 21.8202C97.4377 21.8189 97.4794 21.8372 97.5303 21.8868C97.773 22.1229 97.8265 23.7592 97.7782 24.1558H97.7795Z" fill="#E45B26"/>
</svg>
