<svg width="60" height="63" viewBox="0 0 60 63" fill="none" xmlns="http://www.w3.org/2000/svg">
<path d="M59.9996 29.373H48.3516V32.6656H59.9996V29.373Z" fill="#E45B26"/>
<path d="M55.1381 13.2135L53.3381 15.0747L51.4518 13.1217H51.2859L44.8862 19.5759L42.7393 17.3725L49.0694 10.8299V10.6583L47.1848 8.69577C47.1588 8.54067 48.6923 7.09455 48.9085 6.85107L55.1381 13.2135Z" fill="#E45B26"/>
<path d="M53.9635 49.3545L51.8702 51.7278L45.4445 45.1522L45.2065 45.2241L42.4445 48.0869L40.6445 46.2257L45.8635 40.9932L53.9635 49.3545Z" fill="#E45B26"/>
<path d="M34.8601 0V12.0438H31.8853L27.821 4.59224V12.0438H25.0557V0H28.5333C29.7735 2.10983 30.821 4.3453 31.9406 6.52792C32.2942 7.01053 32.0948 6.48719 32.0948 6.45513V0.129969C32.0948 0.120438 32.2121 0 32.2205 0H34.8601Z" fill="#E45B26"/>
<path d="M33.8548 49.9948V62.0386H26.3129V59.4392H30.7543V57.3597H27.2347V54.8469H30.7543V52.6808H26.0615V49.9948H33.8548Z" fill="#E45B26"/>
<path d="M20.445 48.0453L12.2645 56.4872L9.74889 53.9389L11.8992 46.7031L7.24833 51.3794L5.36621 49.3545L13.4562 40.9775L13.705 41.0659C14.3344 41.7903 15.1145 42.4133 15.6643 43.187L13.3246 51.3811L18.5495 46.1018L20.445 48.0453Z" fill="#E45B26"/>
<path d="M17.9631 12.9164C18.1818 13.1624 19.7136 14.606 19.6868 14.7611L14.2156 20.3558L6.03516 11.9139L11.3547 6.41357L13.1547 8.27473L10.0617 11.5552L11.4385 12.9952C12.2874 12.1747 13.0516 11.2198 13.9525 10.4807C14.0773 10.4807 15.6008 12.0438 15.5807 12.1617L13.1623 14.7611C13.1799 14.8607 14.3983 16.1041 14.5374 16.2046C14.6078 16.2557 14.6245 16.3233 14.7469 16.2886L17.9631 12.9164Z" fill="#E45B26"/>
<path d="M11.5693 29.4111C11.6112 29.7655 11.6179 32.6993 11.5257 32.8423L0 36.5646V33.0987L8.04553 30.8884L7.831 30.677L0 28.5065V25.4739L11.4821 29.1546C11.5743 29.2187 11.5575 29.3158 11.5693 29.4111Z" fill="#E45B26"/>
</svg>
